<svg xmlns="http://www.w3.org/2000/svg">
  <symbol id="icon-check" viewBox="0 0 18 18" fill="none">
    <circle cx="9" cy="9" r="7.5" stroke="currentColor" stroke-width="1.5"/>
    <polyline
      style="stroke-dasharray:14;stroke-dashoffset:var(--check-dashoffset,14);transition:stroke-dashoffset .22s cubic-bezier(.4,0,.2,1)"
      points="4.5,9.5 7.5,12.5 13.5,5.5"
      stroke="currentColor" stroke-width="1.75"
      stroke-linecap="round" stroke-linejoin="round"/>
  </symbol>

  <symbol id="icon-x" viewBox="0 0 18 18" fill="none">
    <line x1="4" y1="4" x2="14" y2="14" stroke="currentColor" stroke-width="1.75" stroke-linecap="round"/>
    <line x1="14" y1="4" x2="4" y2="14" stroke="currentColor" stroke-width="1.75" stroke-linecap="round"/>
  </symbol>

  <symbol id="icon-key" viewBox="0 0 24 24" fill="none">
    <path d="M21 2l-2 2m-7.61 7.61a5.5 5.5 0 1 1-7.778 7.778 5.5 5.5 0 0 1 7.777-7.777zm0 0L15.5 7.5m0 0 3 3L22 7l-3-3m-3.5 3.5L19 4"
      stroke="currentColor" stroke-width="2" stroke-linecap="round" stroke-linejoin="round"/>
  </symbol>

  <symbol id="icon-broom" viewBox="0 0 24 24" fill="none">
    <polyline points="3 6 5 6 21 6"
      stroke="currentColor" stroke-width="1.75" stroke-linecap="round" stroke-linejoin="round"/>
    <path d="M19 6v14a2 2 0 0 1-2 2H7a2 2 0 0 1-2-2V6m3 0V4a1 1 0 0 1 1-1h4a1 1 0 0 1 1 1v2"
      stroke="currentColor" stroke-width="1.75" stroke-linecap="round" stroke-linejoin="round"/>
    <line x1="10" y1="11" x2="10" y2="17"
      stroke="currentColor" stroke-width="1.75" stroke-linecap="round"/>
    <line x1="14" y1="11" x2="14" y2="17"
      stroke="currentColor" stroke-width="1.75" stroke-linecap="round"/>
  </symbol>
</svg>
