<svg xmlns="http://www.w3.org/2000/svg">
  <defs>
    <symbol id="logo" viewBox="0 0 28 28">
      <rect width="28" height="28" rx="6" fill="var(--green)" />
      <path d="M9.5 6.5
             C7.5 6.5 6.5 7.5 6.5 9
             L6.5 11
             C6.5 12.5 5.5 13 4.5 14
             C5.5 15 6.5 15.5 6.5 17
             L6.5 19
             C6.5 20.5 7.5 21.5 9.5 21.5" stroke="#F0EDE6" stroke-width="1.7" stroke-linecap="round"
        stroke-linejoin="round" fill="none" />
      <path d="M18.5 6.5
             C20.5 6.5 21.5 7.5 21.5 9
             L21.5 11
             C21.5 12.5 22.5 13 23.5 14
             C22.5 15 21.5 15.5 21.5 17
             L21.5 19
             C21.5 20.5 20.5 21.5 18.5 21.5" stroke="#F0EDE6" stroke-width="1.7" stroke-linecap="round"
        stroke-linejoin="round" fill="none" />
      <circle cx="14" cy="14" r="1.5" fill="#F0EDE6" opacity="0.6" />
      <line x1="11.5" y1="14" x2="12.2" y2="14" stroke="#F0EDE6" stroke-width="1.2" stroke-linecap="round"
        opacity="0.4" />
      <line x1="15.8" y1="14" x2="16.5" y2="14" stroke="#F0EDE6" stroke-width="1.2" stroke-linecap="round"
        opacity="0.4" />
    </symbol>
  </defs>
</svg>
